name C:\Users\r0593348\3dpredictsim\Results\batch_windlass\Pog_s1_tmt_bCst_d00_k800_WL40_ig24.mot
datacolumns 128
datarows 4
range 0.00000000 0.03266957
endheader
time	pelvis_tilt	pelvis_list	pelvis_rotation	pelvis_tx	pelvis_ty	pelvis_tz	hip_flexion_l	hip_adduction_l	hip_rotation_l	hip_flexion_r	hip_adduction_r	hip_rotation_r	knee_angle_l	knee_angle_r	ankle_angle_l	ankle_angle_r	subtalar_angle_l	subtalar_angle_r	tmt_angle_l	tmt_angle_r	mtp_angle_l	mtp_angle_r	lumbar_extension	lumbar_bending	lumbar_rotation	arm_flex_l	arm_add_l	arm_rot_l	arm_flex_r	arm_add_r	arm_rot_r	elbow_flex_l	elbow_flex_r	pro_sup_l	pro_sup_r	glut_med1_l/activation	glut_med2_l/activation	glut_med3_l/activation	glut_min1_l/activation	glut_min2_l/activation	glut_min3_l/activation	semimem_l/activation	semiten_l/activation	bifemlh_l/activation	bifemsh_l/activation	sar_l/activation	add_long_l/activation	add_brev_l/activation	add_mag1_l/activation	add_mag2_l/activation	add_mag3_l/activation	tfl_l/activation	pect_l/activation	grac_l/activation	glut_max1_l/activation	glut_max2_l/activation	glut_max3_l/activation	iliacus_l/activation	psoas_l/activation	quad_fem_l/activation	gem_l/activation	peri_l/activation	rect_fem_l/activation	vas_med_l/activation	vas_int_l/activation	vas_lat_l/activation	med_gas_l/activation	lat_gas_l/activation	soleus_l/activation	tib_post_l/activation	flex_dig_l/activation	flex_hal_l/activation	tib_ant_l/activation	per_brev_l/activation	per_long_l/activation	per_tert_l/activation	ext_dig_l/activation	ext_hal_l/activation	ercspn_l/activation	intobl_l/activation	extobl_l/activation	glut_med1_r/activation	glut_med2_r/activation	glut_med3_r/activation	glut_min1_r/activation	glut_min2_r/activation	glut_min3_r/activation	semimem_r/activation	semiten_r/activation	bifemlh_r/activation	bifemsh_r/activation	sar_r/activation	add_long_r/activation	add_brev_r/activation	add_mag1_r/activation	add_mag2_r/activation	add_mag3_r/activation	tfl_r/activation	pect_r/activation	grac_r/activation	glut_max1_r/activation	glut_max2_r/activation	glut_max3_r/activation	iliacus_r/activation	psoas_r/activation	quad_fem_r/activation	gem_r/activation	peri_r/activation	rect_fem_r/activation	vas_med_r/activation	vas_int_r/activation	vas_lat_r/activation	med_gas_r/activation	lat_gas_r/activation	soleus_r/activation	tib_post_r/activation	flex_dig_r/activation	flex_hal_r/activation	tib_ant_r/activation	per_brev_r/activation	per_long_r/activation	per_tert_r/activation	ext_dig_r/activation	ext_hal_r/activation	ercspn_r/activation	intobl_r/activation	extobl_r/activation	
          0.00000000	         -2.93017645	         -1.57181790	          5.30131980	          0.00000000	          0.86090081	         -0.00189620	        -17.49965682	         -1.01478807	          6.61536057	         31.68488953	          2.21699800	         -1.97760554	         -7.16433263	        -15.61127088	          3.76968264	          7.78303366	         10.28680585	         -0.95511463	        -10.72763260	         -0.22539989	         27.22369473	          0.53544388	         -1.41234077	         -0.30388763	         -1.98595773	          6.15668520	        -13.45274497	         16.30410864	         -8.23618076	        -13.47699182	          8.35232163	         33.45955685	         15.84683507	         86.51662706	         86.51662706	          0.35154622	          0.09912026	          0.06674854	          0.33795787	          0.20458244	          0.10088926	          0.05000294	          0.05000046	          0.05000030	          0.06972012	          0.09742767	          0.05000139	          0.05000036	          0.05000051	          0.05000150	          0.05000260	          0.26778390	          0.05000119	          0.05000057	          0.05000354	          0.05000260	          0.05000200	          0.32376743	          0.54378242	          0.05000017	          0.05000080	          0.05719893	          0.20876646	          0.05006772	          0.10011927	          0.06683996	          0.29896460	          0.38309695	          0.25197767	          0.23726243	          0.17725013	          0.28188414	          0.05000002	          0.11775430	          0.18140783	          0.05000021	          0.05000004	          0.05000014	          0.05000000	          0.05000006	          0.05000004	          0.06805095	          0.06979603	          0.05000026	          0.05000048	          0.05000079	          0.05290129	          0.06742500	          0.05907628	          0.07713539	          0.05000109	          0.05000050	          0.08979378	          0.12004239	          0.15106146	          0.15423508	          0.10486907	          0.05030518	          0.05000246	          0.06284729	          0.05907571	          0.05907558	          0.09430150	          0.05000015	          0.05000032	          0.24715868	          0.05000035	          0.05000130	          0.05000030	          0.07236012	          0.08206821	          0.06027507	          0.05000002	          0.05000005	          0.05000000	          0.05907456	          0.05907594	          0.05907593	          0.47025363	          0.34207676	          0.22793450	          0.12938389	          0.51853862	          0.23680298	          0.06566795	          0.12014853	          0.12442905	
          0.01088986	         -2.92679630	         -1.61410587	          5.55525891	          0.01644238	          0.86020006	         -0.00169734	        -17.45573201	         -1.26360713	          6.39761631	         31.03143407	          2.52451440	         -1.78412652	         -8.85661767	        -15.08440988	          2.88679309	          7.44288933	         11.09511080	         -1.38295870	        -11.49395911	         -0.28238441	         28.52643054	          0.66956762	         -1.21140788	         -0.10918639	         -2.05933467	          5.96778271	        -13.46351772	         16.57769363	         -9.29173992	        -13.46179717	          8.18915236	         34.51714912	         15.74085003	         86.51662706	         86.51662706	          0.34736849	          0.08389376	          0.05649489	          0.28604217	          0.17315525	          0.08539104	          0.05000079	          0.05000016	          0.05000013	          0.05901003	          0.08246167	          0.11110265	          0.13681681	          0.05000258	          0.05000194	          0.05000035	          0.22664797	          0.10424436	          0.05000298	          0.05000120	          0.05000074	          0.05000059	          0.27403161	          0.48089804	          0.05000023	          0.05000056	          0.05000026	          0.17669654	          0.12772397	          0.08826817	          0.09995654	          0.25303868	          0.32424692	          0.21326972	          0.20081528	          0.15002242	          0.23858230	          0.05000001	          0.09966535	          0.15354067	          0.05000012	          0.05000002	          0.05000011	          0.05000021	          0.05000015	          0.05000008	          0.05759733	          0.05907457	          0.21164361	          0.05907495	          0.05907489	          0.05000177	          0.05907489	          0.05000128	          0.06850597	          0.05000020	          0.05000167	          0.11511550	          0.26840645	          0.18162877	          0.16621511	          0.10886032	          0.05000011	          0.06983443	          0.05319329	          0.05000081	          0.05000065	          0.15049238	          0.05907501	          0.05000862	          0.21391362	          0.22451878	          0.14213441	          0.05842067	          0.16169843	          0.15912219	          0.13782443	          0.05227181	          0.05177625	          0.05305837	          0.05000001	          0.05000099	          0.05000102	          0.61020559	          0.33866763	          0.19292031	          0.43887390	          0.60505693	          0.34882542	          0.05558036	          0.10169173	          0.10531469	
          0.02177972	         -2.91827604	         -1.65949707	          5.78262501	          0.03317438	          0.85938773	         -0.00150206	        -17.33605978	         -1.50900937	          6.16919933	         30.27696980	          2.81389454	         -1.53828355	        -10.70862661	        -15.17318222	          1.88813253	          6.84482737	         11.87186094	         -1.81092210	        -12.10806816	         -0.39576419	         29.48422422	          0.84197968	         -0.98976425	          0.09946494	         -2.12357132	          5.70022066	        -13.47818068	         16.78422095	        -10.35621727	        -13.45124335	          8.07045277	         35.54949282	         15.64950757	         86.51662706	         86.51662706	          0.29400701	          0.07100631	          0.05000116	          0.24210152	          0.14655578	          0.07227360	          0.05000391	          0.05000066	          0.05000111	          0.05000010	          0.06979441	          0.18836531	          0.25484085	          0.09123423	          0.05907628	          0.12590746	          0.19183116	          0.08823117	          0.05000111	          0.05007467	          0.05353833	          0.05907413	          0.23193586	          0.43617340	          0.05025154	          0.05002699	          0.05000025	          0.14955305	          0.13601517	          0.16058628	          0.13600901	          0.21416774	          0.27443722	          0.18050796	          0.16996677	          0.12697668	          0.20193219	          0.05000074	          0.08435517	          0.12995448	          0.05000016	          0.07456457	          0.05000086	          0.05521290	          0.05907519	          0.05907808	          0.05000002	          0.05000007	          0.17913173	          0.05000011	          0.05000010	          0.05000014	          0.05000011	          0.05000020	          0.05798236	          0.05000008	          0.05000025	          0.09743199	          0.22717499	          0.29412364	          0.21066786	          0.12709742	          0.05000103	          0.05910792	          0.06632413	          0.06900445	          0.09896930	          0.12737438	          0.05000025	          0.05000032	          0.32793697	          0.19002902	          0.12030027	          0.06209272	          0.21698140	          0.22076304	          0.18723110	          0.06293606	          0.06852858	          0.05000009	          0.06168400	          0.05000359	          0.05000098	          0.51646794	          0.36615345	          0.21652322	          0.37145597	          0.53794170	          0.29524012	          0.05000000	          0.08607021	          0.08913661	
          0.03266957	         -2.90618197	         -1.71143047	          5.97913849	          0.05008091	          0.85845572	         -0.00132090	        -17.14442412	         -1.74895005	          5.93266504	         29.35870491	          3.05412516	         -1.27989496	        -12.70180332	        -15.49411797	          0.79630286	          6.40125649	         12.58423029	         -2.24222569	        -12.50757177	         -0.97310349	         29.91575672	          0.86812485	         -0.75758635	          0.32373805	         -2.17582778	          5.37046346	        -13.49352979	         16.92581863	        -11.39741139	        -13.45025668	          8.03037233	         36.55245606	         15.54156189	         86.51662706	         86.51662706	          0.34803260	          0.06009858	          0.05000002	          0.30974962	          0.12404245	          0.06117122	          0.05000236	          0.05000016	          0.05000011	          0.05000038	          0.05907612	          0.15943123	          0.23310863	          0.07721937	          0.05000217	          0.10656618	          0.16236297	          0.08247270	          0.05000052	          0.05000058	          0.05000038	          0.05000032	          0.19630677	          0.41641362	          0.05000004	          0.05000019	          0.05000015	          0.12657924	          0.11512104	          0.13591762	          0.11511582	          0.18126803	          0.23227913	          0.15277894	          0.14385710	          0.10747110	          0.17091216	          0.08875107	          0.16513234	          0.16518385	          0.16819543	          0.16450956	          0.11510123	          0.06857206	          0.05000027	          0.05000273	          0.23802498	          0.25124843	          0.34480663	          0.27833192	          0.20114355	          0.18230216	          0.07846155	          0.07660742	          0.07606505	          0.08246522	          0.05907517	          0.08246485	          0.19227717	          0.24894146	          0.17830589	          0.10757331	          0.05000049	          0.05002843	          0.05613584	          0.17813649	          0.13938099	          0.10780764	          0.05000056	          0.05000046	          0.27756055	          0.16083760	          0.21535702	          0.05255428	          0.18364950	          0.18685022	          0.15846933	          0.05326807	          0.05800151	          0.05511090	          0.05220833	          0.05907504	          0.05907495	          0.62925121	          0.41818784	          0.21119531	          0.52523684	          0.64587041	          0.39203473	          0.05044057	          0.09743186	          0.07544376	
